<?xml version="1.0" encoding="utf-8"?>
<!-- Generator: Adobe Illustrator 24.2.3, SVG Export Plug-In . SVG Version: 6.00 Build 0)  -->
<svg version="1.1" id="Layer_1" xmlns="http://www.w3.org/2000/svg" xmlns:xlink="http://www.w3.org/1999/xlink" x="0px" y="0px"
	 viewBox="0 0 119.6 120" style="enable-background:new 0 0 119.6 120;" xml:space="preserve">
<style type="text/css">
	.st0{fill:#BE8C2C;}
	.st1{fill:#407F46;}
	.st2{fill:#DC1868;}
	.st3{fill:#F26A2C;}
	.st4{fill:#1C97D4;}
	.st5{fill:#4CA046;}
	.st6{fill:#DDA73B;}
	.st7{fill:#F99D2A;}
	.st8{fill:#F9C213;}
	.st9{fill:#194A6B;}
	.st10{fill:#A21C44;}
	.st11{fill:#E3273E;}
	.st12{fill:#EF412C;}
	.st13{fill:#07699E;}
	.st14{fill:#2ABDE2;}
</style>
<g>
	<g>
		<path class="st0" d="M27.5,71.2c0.4,0,0.4,0.2,0.4,0.4c1,2.5,2.1,4.9,3.5,7c0.4,0.6,0,0.6-0.4,1c-5.3,4.1-10.5,8-16,12.1
			c-1.2,1-2.3,1.8-3.5,2.7c-0.4,0.4-0.8,0.4-1.2-0.2c-3.3-4.7-5.9-10-7.6-15.4C2.5,78,2.9,78,3.3,78c7.4-2.1,14.8-4.3,22.2-6.4
			C26.3,71.4,26.9,71.4,27.5,71.2z"/>
		<path class="st1" d="M0,61.1c0-1.4,0-2.7,0-4.1c0-0.8,0.4-0.8,1-0.8c3.9,0.4,8,0.8,11.9,1c3.9,0.4,7.8,0.8,11.9,1
			c1.2,0.2,1.4,0.2,1.2,1.4c0,2.3,0.2,4.7,0.6,6.8c0.2,0.6,0,0.8-0.6,1c-7.8,2.3-15.8,4.5-23.6,6.8c-0.6,0.2-0.8,0-1-0.6
			C0.6,69.7,0,65.4,0,61.1z"/>
		<path class="st2" d="M51.9,93.5c-0.4,2.3-0.8,4.7-1.4,7c-1.2,5.9-2.1,11.7-3.3,17.6c-0.2,0.6-0.4,0.8-1,0.6
			c-5.5-1.2-10.7-3.3-15.6-6c-0.6-0.4-0.8-0.6-0.4-1.2c4.3-6.8,8.6-13.9,12.9-20.7c0.4-0.8,0.8-0.8,1.4-0.4c2.1,1.2,4.3,2,6.6,2.5
			C51.9,93.1,51.9,93.1,51.9,93.5z"/>
		<path class="st3" d="M59.7,120c-2.7,0-5.3-0.2-8-0.4c-0.8,0-0.8-0.4-0.6-1c1-4.7,1.8-9.6,2.7-14.2c0.6-3.3,1.2-6.4,1.8-9.8
			c0.2-0.6,0.2-0.8,1-0.8c2.5,0.4,5.1,0.2,7.6-0.2c0.6,0,0.6,0.4,0.6,0.6c1,4.9,1.8,9.8,2.7,14.6c0.6,3.1,1.2,6.4,1.8,9.6
			c0.2,0.6,0,0.8-0.6,0.8C65.6,119.8,62.6,120,59.7,120z"/>
		<path class="st4" d="M25.9,54.8c-4.7-0.4-9.4-0.8-13.9-1.2c-3.7-0.4-7.2-0.6-10.9-1c-0.6,0-0.8-0.2-0.8-0.8
			c0.8-5.7,2.3-10.9,4.7-16c0.4-0.8,0.6-0.8,1.2-0.4c7.2,3.7,14.4,7.2,21.7,10.9c0.6,0.4,0.8,0.6,0.4,1.2c-1,2.1-1.6,4.5-2,6.8
			C26.3,54.8,26.3,54.8,25.9,54.8z"/>
		<path class="st5" d="M30.4,43.1c-0.2,0-0.4-0.2-0.4-0.2c-7.4-3.7-14.8-7.4-22.2-11.1c-0.4-0.2-0.6-0.4-0.2-0.8
			c2.9-5.1,6.2-9.6,10.3-13.7c0.4-0.4,0.6-0.4,0.8,0c5.7,6.2,11.1,12.3,16.8,18.3c0.4,0.4,0.2,0.6,0,0.8c-1.8,1.8-3.3,3.7-4.7,6
			C30.8,42.7,30.8,42.9,30.4,43.1z"/>
		<path class="st6" d="M81,33.9c-0.2-0.2-0.4-0.2-0.6-0.4c-1.8-1.4-3.7-2.7-5.7-3.5c-0.8-0.4-1-0.8-0.6-1.6
			c2.5-6.6,5.1-13.3,7.8-20.1c0.4-1,0.8-1.8,1-2.7c0.2-0.4,0.2-0.6,0.8-0.4c5.3,2.3,10.1,5.5,14.6,9.2c0.4,0.4,0.4,0.6,0,1
			c-5.7,6-11.1,12.1-16.6,18.1C81.4,33.8,81.4,33.9,81,33.9z"/>
		<path class="st7" d="M26.7,110c-0.2-0.2-0.4-0.2-0.6-0.4c-4.7-3.1-8.8-7-12.5-11.3c-0.4-0.6-0.4-0.8,0.2-1.2
			c6.4-4.9,13.1-10,19.5-14.8c0.6-0.4,0.8-0.4,1.2,0c1.6,1.8,3.3,3.5,5.5,4.9c0.6,0.4,0.4,0.6,0.2,1c-4.3,7-8.6,13.9-12.9,20.9
			C27.1,109.6,27.1,110,26.7,110z"/>
		<path class="st8" d="M85.7,81.6c0.2,0.2,0.4,0.2,0.6,0.4c6.6,4.9,13.3,10,19.7,14.8c0.4,0.4,0.4,0.6,0.2,1
			c-3.7,4.5-7.8,8.2-12.5,11.5c-0.4,0.4-0.6,0.4-1-0.2c-4.3-7-8.8-14-13.1-21.1c-0.2-0.4-0.2-0.6,0.2-1c2-1.6,3.9-3.1,5.5-5.1
			C85.5,81.9,85.7,81.7,85.7,81.6z"/>
		<path class="st9" d="M58.1,13.5c0,3.9,0,8,0,11.9c0,0.8,0,1-1,1c-2.3,0.2-4.7,0.6-7,1.2c-0.6,0.2-0.8,0-1-0.4
			c-2.9-7.8-6-15.4-9-23.2C40,3.5,40,3.3,40.6,3.1C46,1.4,51.5,0.4,57.2,0c0.6,0,0.8,0.2,0.8,0.8C58.1,5.3,58.1,9.4,58.1,13.5z"/>
		<path class="st10" d="M68.3,93.3c0-0.4,0.2-0.4,0.4-0.6c2.5-0.6,4.9-1.6,7-2.9c0.6-0.4,0.8,0,1,0.4c2.3,3.7,4.5,7.4,6.8,10.9
			c2,3.3,4.1,6.6,6,9.8c0.4,0.6,0.4,0.8-0.2,1.2c-4.9,2.7-10,4.9-15.4,6c-0.8,0.2-0.8,0-1-0.6c-1.6-8-2.9-16-4.5-24L68.3,93.3z"/>
		<path class="st11" d="M119,52.3c0.2,0.4-0.2,0.4-0.6,0.6c-3.5,0.4-7,0.6-10.5,1c-4.7,0.4-9.4,0.8-14,1.4c-0.6,0-0.8-0.2-1-0.6
			c-0.4-2.3-1-4.7-2-6.8c-0.2-0.6,0-0.8,0.4-1c7.4-3.7,14.8-7.4,22.2-10.9c0.4-0.2,0.6-0.4,0.8,0.2C116.7,41.4,118.2,46.8,119,52.3
			C119,52.1,119,52.3,119,52.3z"/>
		<path class="st5" d="M89.2,43.5c-0.4,0-0.4-0.2-0.4-0.4c-1.4-2.1-2.7-4.3-4.5-6c-0.4-0.4-0.2-0.6,0-0.8c5.7-6,11.1-12.1,16.8-18.3
			c0.4-0.4,0.6-0.4,1,0c3.9,3.9,7.2,8.4,10,13.3c0.4,0.6,0.2,0.8-0.4,1.2c-7.2,3.7-14.6,7.2-21.9,10.9
			C89.6,43.3,89.4,43.3,89.2,43.5z"/>
		<path class="st12" d="M119.4,61.3c0,4.3-0.6,8.4-1.6,12.5c-0.2,0.6-0.2,0.6-0.8,0.6c-8-2.3-15.8-4.5-23.8-6.8
			c-0.4-0.2-0.8-0.2-0.6-0.8c0.6-2.3,0.8-4.7,0.6-7c0-0.6,0.2-0.8,0.8-0.8c4.1-0.4,8.2-0.8,12.3-1.2c4.1-0.4,8.2-0.8,12.3-1.2
			c0.8,0,1,0,1,0.8C119.4,58.7,119.4,59.9,119.4,61.3z"/>
		<path class="st11" d="M61.8,13.5c0-4.1,0-8.2,0-12.3c0-0.6,0.2-0.8,0.8-0.8c5.5,0.4,10.9,1.4,16.2,3.1c0.6,0.2,0.8,0.4,0.4,1
			c-2.9,7.6-5.9,15.2-8.8,22.8c-0.2,0.6-0.4,0.8-1,0.6c-2.1-0.8-4.5-1.2-6.8-1.4c-0.6,0-0.8-0.2-0.8-1
			C61.8,21.7,61.8,17.6,61.8,13.5z"/>
		<path class="st13" d="M38.8,33.8c-0.2-0.2-0.4-0.2-0.4-0.4c-5.7-6-11.1-12.3-16.8-18.3c-0.4-0.4-0.4-0.6,0-1c4.3-3.5,9-6.4,14-8.6
			c0.6-0.2,1-0.2,1.2,0.4c2.9,7.6,5.9,15,8.8,22.6c0.2,0.8,0.2,1-0.6,1.4c-2.1,1-3.9,2.1-5.9,3.5C39.2,33.4,39,33.6,38.8,33.8z"/>
		<path class="st14" d="M91.9,71c0.8,0.2,1.6,0.4,2.1,0.6c7.2,2.1,14.6,4.3,21.9,6.2c0.6,0.2,0.8,0.4,0.6,1
			c-1.8,5.3-4.1,10.1-7.2,14.6c-0.4,0.6-0.6,0.6-1,0.2c-6.6-4.9-13.1-10-19.7-14.8c-0.4-0.4-0.4-0.6-0.2-1c1.2-2,2.1-4.1,3.1-6.2
			C91.5,71.4,91.5,71,91.9,71z"/>
	</g>
</g>
</svg>
