<?xml version="1.0" encoding="UTF-8"?> <!-- Generator: Adobe Illustrator 24.2.3, SVG Export Plug-In . SVG Version: 6.00 Build 0) --> <svg xmlns="http://www.w3.org/2000/svg" xmlns:xlink="http://www.w3.org/1999/xlink" version="1.1" id="Layer_1" x="0px" y="0px" viewBox="0 0 358.5 213.7" style="enable-background:new 0 0 358.5 213.7;" xml:space="preserve"> <style type="text/css"> .st0{fill:#BE8C2C;} .st1{fill:#407F46;} .st2{fill:#DC1868;} .st3{fill:#F26A2C;} .st4{fill:#1C97D4;} .st5{fill:#4CA046;} .st6{fill:#DDA73B;} .st7{fill:#F99D2A;} .st8{fill:#F9C213;} .st9{fill:#194A6B;} .st10{fill:#A21C44;} .st11{fill:#E3273E;} .st12{fill:#EF412C;} .st13{fill:#07699E;} .st14{fill:#2ABDE2;} </style> <g> <g> <path class="st0" d="M111.4,181.1c0.2,0,0.2,0.1,0.2,0.2c0.5,1.3,1.1,2.5,1.8,3.6c0.2,0.3,0,0.3-0.2,0.5c-2.7,2.1-5.4,4.1-8.2,6.2 c-0.6,0.5-1.2,0.9-1.8,1.4c-0.2,0.2-0.4,0.2-0.6-0.1c-1.7-2.4-3-5.1-3.9-7.9c-0.1-0.4,0.1-0.4,0.3-0.4c3.8-1.1,7.6-2.2,11.4-3.3 C110.8,181.2,111.1,181.2,111.4,181.1z"></path> <path class="st1" d="M97.3,175.9c0-0.7,0-1.4,0-2.1c0-0.4,0.2-0.4,0.5-0.4c2,0.2,4.1,0.4,6.1,0.5c2,0.2,4,0.4,6.1,0.5 c0.6,0.1,0.7,0.1,0.6,0.7c0,1.2,0.1,2.4,0.3,3.5c0.1,0.3,0,0.4-0.3,0.5c-4,1.2-8.1,2.3-12.1,3.5c-0.3,0.1-0.4,0-0.5-0.3 C97.6,180.3,97.3,178.1,97.3,175.9z"></path> <path class="st2" d="M123.9,192.5c-0.2,1.2-0.4,2.4-0.7,3.6c-0.6,3-1.1,6-1.7,9c-0.1,0.3-0.2,0.4-0.5,0.3c-2.8-0.6-5.5-1.7-8-3.1 c-0.3-0.2-0.4-0.3-0.2-0.6c2.2-3.5,4.4-7.1,6.6-10.6c0.2-0.4,0.4-0.4,0.7-0.2c1.1,0.6,2.2,1,3.4,1.3 C123.9,192.3,123.9,192.3,123.9,192.5z"></path> <path class="st3" d="M127.9,206.1c-1.4,0-2.7-0.1-4.1-0.2c-0.4,0-0.4-0.2-0.3-0.5c0.5-2.4,0.9-4.9,1.4-7.3c0.3-1.7,0.6-3.3,0.9-5 c0.1-0.3,0.1-0.4,0.5-0.4c1.3,0.2,2.6,0.1,3.9-0.1c0.3,0,0.3,0.2,0.3,0.3c0.5,2.5,0.9,5,1.4,7.5c0.3,1.6,0.6,3.3,0.9,4.9 c0.1,0.3,0,0.4-0.3,0.4C130.9,206,129.4,206.1,127.9,206.1z"></path> <path class="st4" d="M110.6,172.7c-2.4-0.2-4.8-0.4-7.1-0.6c-1.9-0.2-3.7-0.3-5.6-0.5c-0.3,0-0.4-0.1-0.4-0.4 c0.4-2.9,1.2-5.6,2.4-8.2c0.2-0.4,0.3-0.4,0.6-0.2c3.7,1.9,7.4,3.7,11.1,5.6c0.3,0.2,0.4,0.3,0.2,0.6c-0.5,1.1-0.8,2.3-1,3.5 C110.8,172.7,110.8,172.7,110.6,172.7z"></path> <path class="st5" d="M112.9,166.7c-0.1,0-0.2-0.1-0.2-0.1c-3.8-1.9-7.6-3.8-11.4-5.7c-0.2-0.1-0.3-0.2-0.1-0.4 c1.5-2.6,3.2-4.9,5.3-7c0.2-0.2,0.3-0.2,0.4,0c2.9,3.2,5.7,6.3,8.6,9.4c0.2,0.2,0.1,0.3,0,0.4c-0.9,0.9-1.7,1.9-2.4,3.1 C113.1,166.5,113.1,166.6,112.9,166.7z"></path> <path class="st6" d="M138.8,162c-0.1-0.1-0.2-0.1-0.3-0.2c-0.9-0.7-1.9-1.4-2.9-1.8c-0.4-0.2-0.5-0.4-0.3-0.8 c1.3-3.4,2.6-6.8,4-10.3c0.2-0.5,0.4-0.9,0.5-1.4c0.1-0.2,0.1-0.3,0.4-0.2c2.7,1.2,5.2,2.8,7.5,4.7c0.2,0.2,0.2,0.3,0,0.5 c-2.9,3.1-5.7,6.2-8.5,9.3C139,161.9,139,162,138.8,162z"></path> <path class="st7" d="M111,201c-0.1-0.1-0.2-0.1-0.3-0.2c-2.4-1.6-4.5-3.6-6.4-5.8c-0.2-0.3-0.2-0.4,0.1-0.6 c3.3-2.5,6.7-5.1,10-7.6c0.3-0.2,0.4-0.2,0.6,0c0.8,0.9,1.7,1.8,2.8,2.5c0.3,0.2,0.2,0.3,0.1,0.5c-2.2,3.6-4.4,7.1-6.6,10.7 C111.2,200.8,111.2,201,111,201z"></path> <path class="st8" d="M141.2,186.4c0.1,0.1,0.2,0.1,0.3,0.2c3.4,2.5,6.8,5.1,10.1,7.6c0.2,0.2,0.2,0.3,0.1,0.5 c-1.9,2.3-4,4.2-6.4,5.9c-0.2,0.2-0.3,0.2-0.5-0.1c-2.2-3.6-4.5-7.2-6.7-10.8c-0.1-0.2-0.1-0.3,0.1-0.5c1-0.8,2-1.6,2.8-2.6 C141.1,186.6,141.2,186.5,141.2,186.4z"></path> <path class="st9" d="M127.1,151.5c0,2,0,4.1,0,6.1c0,0.4,0,0.5-0.5,0.5c-1.2,0.1-2.4,0.3-3.6,0.6c-0.3,0.1-0.4,0-0.5-0.2 c-1.5-4-3.1-7.9-4.6-11.9c-0.1-0.2-0.1-0.3,0.2-0.4c2.8-0.9,5.6-1.4,8.5-1.6c0.3,0,0.4,0.1,0.4,0.4 C127.1,147.3,127.1,149.4,127.1,151.5z"></path> <path class="st10" d="M132.3,192.4c0-0.2,0.1-0.2,0.2-0.3c1.3-0.3,2.5-0.8,3.6-1.5c0.3-0.2,0.4,0,0.5,0.2c1.2,1.9,2.3,3.8,3.5,5.6 c1,1.7,2.1,3.4,3.1,5c0.2,0.3,0.2,0.4-0.1,0.6c-2.5,1.4-5.1,2.5-7.9,3.1c-0.4,0.1-0.4,0-0.5-0.3c-0.8-4.1-1.5-8.2-2.3-12.3 L132.3,192.4z"></path> <path class="st11" d="M158.3,171.4c0.1,0.2-0.1,0.2-0.3,0.3c-1.8,0.2-3.6,0.3-5.4,0.5c-2.4,0.2-4.8,0.4-7.2,0.7 c-0.3,0-0.4-0.1-0.5-0.3c-0.2-1.2-0.5-2.4-1-3.5c-0.1-0.3,0-0.4,0.2-0.5c3.8-1.9,7.6-3.8,11.4-5.6c0.2-0.1,0.3-0.2,0.4,0.1 C157.1,165.8,157.9,168.6,158.3,171.4C158.3,171.3,158.3,171.4,158.3,171.4z"></path> <path class="st5" d="M143,166.9c-0.2,0-0.2-0.1-0.2-0.2c-0.7-1.1-1.4-2.2-2.3-3.1c-0.2-0.2-0.1-0.3,0-0.4c2.9-3.1,5.7-6.2,8.6-9.4 c0.2-0.2,0.3-0.2,0.5,0c2,2,3.7,4.3,5.1,6.8c0.2,0.3,0.1,0.4-0.2,0.6c-3.7,1.9-7.5,3.7-11.2,5.6 C143.2,166.8,143.1,166.8,143,166.9z"></path> <path class="st12" d="M158.5,176c0,2.2-0.3,4.3-0.8,6.4c-0.1,0.3-0.1,0.3-0.4,0.3c-4.1-1.2-8.1-2.3-12.2-3.5 c-0.2-0.1-0.4-0.1-0.3-0.4c0.3-1.2,0.4-2.4,0.3-3.6c0-0.3,0.1-0.4,0.4-0.4c2.1-0.2,4.2-0.4,6.3-0.6c2.1-0.2,4.2-0.4,6.3-0.6 c0.4,0,0.5,0,0.5,0.4C158.5,174.7,158.5,175.3,158.5,176z"></path> <path class="st11" d="M129,151.5c0-2.1,0-4.2,0-6.3c0-0.3,0.1-0.4,0.4-0.4c2.8,0.2,5.6,0.7,8.3,1.6c0.3,0.1,0.4,0.2,0.2,0.5 c-1.5,3.9-3,7.8-4.5,11.7c-0.1,0.3-0.2,0.4-0.5,0.3c-1.1-0.4-2.3-0.6-3.5-0.7c-0.3,0-0.4-0.1-0.4-0.5 C129,155.7,129,153.6,129,151.5z"></path> <path class="st13" d="M117.2,161.9c-0.1-0.1-0.2-0.1-0.2-0.2c-2.9-3.1-5.7-6.3-8.6-9.4c-0.2-0.2-0.2-0.3,0-0.5 c2.2-1.8,4.6-3.3,7.2-4.4c0.3-0.1,0.5-0.1,0.6,0.2c1.5,3.9,3,7.7,4.5,11.6c0.1,0.4,0.1,0.5-0.3,0.7c-1.1,0.5-2,1.1-3,1.8 C117.4,161.7,117.3,161.8,117.2,161.9z"></path> <path class="st14" d="M144.4,181c0.4,0.1,0.8,0.2,1.1,0.3c3.7,1.1,7.5,2.2,11.2,3.2c0.3,0.1,0.4,0.2,0.3,0.5 c-0.9,2.7-2.1,5.2-3.7,7.5c-0.2,0.3-0.3,0.3-0.5,0.1c-3.4-2.5-6.7-5.1-10.1-7.6c-0.2-0.2-0.2-0.3-0.1-0.5c0.6-1,1.1-2.1,1.6-3.2 C144.2,181.2,144.2,181,144.4,181z"></path> </g> <path class="st9" d="M96.7,148c-0.8,0.1-1.6,0.3-2.5,0.5c-0.8,0.3-1.6,0.6-2.4,1.1c-1.2,0.7-2.1,1.4-2.6,2.3c-0.5,0.8-1,1.8-1.4,3 c-1.5,4-3.7,10.5-6.8,19.4c-3,8.9-6.2,18.1-9.5,27.7h-8l-14.9-42l-13.4,42h-8c-4.4-12.9-7.8-22.8-10.2-29.8s-4.4-12.8-6-17.5 c-0.5-1.4-1.1-2.5-1.7-3.1c-0.6-0.7-1.5-1.3-2.5-2c-0.7-0.5-1.5-0.8-2.3-1.1c-0.8-0.2-1.7-0.4-2.8-0.5v-3.1h30.2v3 c-1.8,0.2-3.1,0.4-4,0.6c-0.9,0.2-1.6,0.4-2.1,0.6c-0.5,0.2-0.8,0.4-0.9,0.7c-0.1,0.2-0.2,0.5-0.2,0.6c0,0.4,0,0.7,0.1,1.1 c0.1,0.3,0.2,0.7,0.3,1.2c0.6,2.1,1.9,6,3.9,11.8c1.9,5.8,4.3,13,7.2,21.5l12.9-41.1h8.5l14.9,42.5c2.2-6.8,4-12.4,5.3-16.7 s2.4-8,3.3-11.1c0.5-1.9,1-3.5,1.3-4.7c0.3-1.3,0.5-2.4,0.5-3.3c0-0.6-0.3-1-0.8-1.4s-1.2-0.7-2.1-1c-0.7-0.2-1.7-0.4-2.9-0.6 c-1.2-0.1-2.2-0.3-3.1-0.3v-3.2h22.7L96.7,148L96.7,148z"></path> <path class="st9" d="M229.7,201.3H208c-3.7-5.7-6.9-10.3-9.3-13.7c-2.5-3.4-5.6-7.3-9.3-11.8h-2.2V193c0,1,0.2,1.8,0.5,2.4 c0.4,0.7,1,1.2,2.1,1.7c0.5,0.2,1.3,0.4,2.4,0.7c1.1,0.2,2,0.4,2.8,0.5v3.1h-30.2v-3.1c0.8-0.1,1.8-0.2,3-0.3 c1.3-0.1,2.2-0.3,2.7-0.5c1-0.4,1.7-1,2-1.6s0.5-1.5,0.5-2.5v-39.9c0-1-0.1-1.8-0.4-2.4c-0.3-0.6-1-1.2-2.1-1.7 c-0.8-0.3-1.9-0.6-3-0.9c-1.2-0.2-2.1-0.4-2.7-0.5v-3.1h31.7c7.1,0,12.5,1.1,16.2,3.3s5.5,5.6,5.5,10.1c0,4-1.1,7.1-3.4,9.5 s-5.7,4.3-10.4,5.6c1.8,2.3,3.9,5,6.3,8.1s4.9,6.2,7.5,9.4c0.8,1,1.9,2.3,3.4,3.8c1.4,1.5,2.7,2.4,3.8,2.8c0.6,0.2,1.4,0.3,2.3,0.5 c0.9,0.1,1.6,0.2,2,0.2L229.7,201.3L229.7,201.3z M202.6,159.3c0-3.8-1.1-6.5-3.2-8.3c-2.1-1.7-5.1-2.6-9-2.6h-3.2v23.7h3 c3.9,0,6.9-1,9.1-3.1C201.5,167,202.6,163.7,202.6,159.3z"></path> <path class="st9" d="M283,183.2l-1.1,18.1h-52.1v-3.1c0.9-0.1,2-0.2,3.3-0.4c1.2-0.2,2.1-0.3,2.5-0.5c1-0.4,1.6-0.9,2-1.6 c0.4-0.7,0.6-1.5,0.6-2.5v-39.9c0-1-0.1-1.7-0.4-2.4c-0.3-0.6-1-1.2-2.1-1.7c-0.8-0.4-1.8-0.7-3-0.9s-2.1-0.4-2.8-0.5v-3.1h31v3.1 c-0.9,0.1-1.9,0.2-3,0.3c-1.2,0.1-2.2,0.4-3,0.6c-1,0.3-1.7,0.9-2.1,1.6c-0.3,0.7-0.5,1.6-0.5,2.5V190c0,1.8,0.1,3.1,0.4,4.1 c0.2,1,0.7,1.8,1.4,2.2c0.7,0.5,1.7,0.8,2.9,1c1.2,0.1,2.9,0.2,5.1,0.2c2.1,0,4.2-0.1,6.2-0.4c2-0.3,3.4-0.8,4.3-1.7 c1.4-1.4,2.7-3.3,4.2-5.7c1.4-2.5,2.6-4.7,3.4-6.8h2.8V183.2z"></path> <path class="st9" d="M336.7,150.6c3.5,2.3,6.2,5.3,8.4,9c2.1,3.8,3.2,8.4,3.2,13.8c0,4.8-0.9,8.9-2.8,12.5 c-1.9,3.5-4.4,6.4-7.5,8.7c-3.2,2.3-6.8,3.9-10.9,5c-4,1.1-8.3,1.7-12.7,1.7h-28.5v-3.1c0.8,0,1.9-0.1,3.2-0.2 c1.3-0.1,2.1-0.3,2.5-0.5c1-0.4,1.6-0.9,2-1.6c0.4-0.7,0.6-1.5,0.6-2.4v-40.1c0-0.9-0.2-1.7-0.5-2.4s-1-1.3-2-1.8s-2.1-0.8-3.2-0.9 c-1.1-0.2-2-0.3-2.6-0.3v-3.1H316c3.2,0,6.7,0.4,10.3,1.2C329.8,146.9,333.3,148.4,336.7,150.6z M328.6,191.1 c1.3-2.1,2.3-4.7,2.8-7.6c0.6-2.9,0.9-6.3,0.9-10.1c0-3.7-0.4-7.2-1.2-10.2c-0.8-3.1-2-5.7-3.5-7.9s-3.5-3.9-5.8-5.1 c-2.3-1.2-4.9-1.8-7.8-1.8c-0.9,0-2,0-3.2,0.1c-1.2,0-2.1,0.1-2.6,0.1v42.9c0,1,0.1,1.8,0.4,2.5s0.7,1.4,1.3,1.9 c0.6,0.6,1.4,1,2.2,1.3c0.9,0.3,2.1,0.5,3.5,0.5c3,0,5.6-0.6,7.7-1.7C325.5,194.9,327.2,193.3,328.6,191.1z"></path> <path class="st3" d="M49.6,117.3c-6.7,0-13-0.8-18.8-2.5c-5.9-1.7-10.7-3.6-14.8-5.9l-5.4,5.4H4L3,74.6h6.7 c1.5,3.8,3.3,7.7,5.6,11.9c2.3,4.2,5,7.9,8.2,11.3c3.1,3.6,6.7,6.3,10.7,8.4c4,2.1,8.4,3.3,13.6,3.3c7.1,0,12.3-1.7,16.1-5.2 c3.8-3.3,5.6-7.7,5.6-13c0-4.2-1.7-7.9-4.8-10.9c-3.1-2.9-8.2-5.4-14.8-7.5c-4.4-1.5-8.4-2.7-11.9-4c-3.6-1.3-7.1-2.5-10.2-3.6 c-7.3-2.9-13-7.1-16.5-12.5S5.7,41.4,5.7,34.5c0-4.4,0.8-8.4,2.7-12.3c1.9-4,4.6-7.5,8.2-10.7c3.3-2.9,7.7-5.4,13.2-7.1 C35,2.5,40.9,1.6,47.1,1.6c6.1,0,11.7,0.8,17.1,2.5c5.2,1.7,9.4,3.3,12.5,5l4.8-4.6h6.7L89,42h-6.7c-1.5-4-3.3-8.2-5.4-12.3 c-2.1-4.2-4.4-7.7-6.7-10.5c-2.5-2.9-5.4-5.4-8.8-7.1c-3.3-1.9-7.1-2.7-11.7-2.7c-5.6,0-10,1.7-13.6,4.8c-3.6,3.1-5.2,7.1-5.2,11.7 c0,4.4,1.5,7.9,4.6,10.9c3.1,2.7,7.9,5.2,14.4,7.3c3.8,1.3,7.7,2.5,11.7,4c4,1.3,7.5,2.5,10.7,3.8c7.5,2.9,13.2,6.9,17.1,11.9 c4,5,5.9,11.5,5.9,19c0,4.8-1,9.4-3.3,13.8c-2.3,4.4-5.2,8.2-9,11.1c-4.2,3.3-9,5.9-14.2,7.5C63.2,116.5,57,117.3,49.6,117.3z"></path> <path class="st3" d="M348.3,70.7c-1.7,0.2-2.9,0.4-4.2,0.6c-1.3,0.2-2.7,0.6-4.6,1.3c-2.1,0.6-3.6,1.9-4.2,3.3 c-0.6,1.5-1,3.1-1,4.8v12.8c0,2.5,0,4.6,0,6.3c0,1.7,0.2,3.6,0.2,5.9c-5.2,3.1-12.8,6.1-22.8,8.8c-10,2.7-19.5,4.2-27.8,4.2 c-7.9,0-15.5-1.3-22.4-3.6c-6.9-2.5-13.2-6.1-18.4-10.9c-5.2-4.8-9.4-10.7-12.3-18c-2.9-7.1-4.6-15.3-4.6-24.5 c0-8.6,1.5-16.5,4.2-23.8c2.9-7.3,6.9-13.6,12.3-18.8c5.2-5.2,11.7-9.2,19.2-12.1s15.9-4.2,25.1-4.2c6.3,0,11.9,0.8,17.4,2.3 c5.2,1.5,9.6,3.1,13.2,5l4.8-4.2h6.7l0.6,40.2h-6.9c-4-12.1-8.6-20.9-14-26.8s-12.3-8.8-20.7-8.8c-9.8,0-17.6,4.4-23,13 s-8.2,20.7-8.2,36c0,16.1,2.7,28.9,7.9,38.1c5.2,9.2,12.8,13.8,22.6,13.8c4.6,0,8.6-0.6,12.1-2.1c3.6-1.5,6.3-2.9,8.2-4.8v-23 c0-1.9-0.4-3.3-1-4.6c-0.6-1.3-2.1-2.3-4-3.3c-1.5-0.6-3.6-1.3-5.9-1.9c-2.3-0.4-4.2-0.8-5.9-1v-5.9h57.1v6.1H348.3z"></path> <g> <path class="st3" d="M189.1,53.1c-0.4,2.1,1,1.9,2.3,2.1c0.4,0,0.6-0.8,1-1.3c-0.8-0.2-1.7-0.6-2.5-0.8 C189.8,52.9,189.3,53.1,189.1,53.1z"></path> <path class="st3" d="M176.2,51.8c0.2,0.2,0.4,0.4,0.6,0.6c0.8-0.2,1.7-0.6,2.3-0.6c1.3,0,2.9,0,3.3,0.6c2.3,2.9,4.4,2.3,6.7,0.6 c-3.6-1.3-6.9-2.5-10.9-4.2C177.8,49.5,177,50.6,176.2,51.8z"></path> <path class="st3" d="M216.3,34.3c-4.2-7.3-9.6-13.2-16.3-17.6c-6.7-4.2-13.4-7.3-20.5-9c-7.1-1.5-13.8-2.3-20.1-2.3h-58.4v6.1 c1,0.2,2.9,0.4,5,0.6c2.3,0.4,4.4,1,6.3,1.9s3.3,1.9,4,3.3c0.6,1.5,1,3.1,1,4.8v77.8c0,1.9-0.4,3.6-1,4.8c-0.8,1.3-2.1,2.3-4,3.1 c-0.8,0.2-2.5,0.6-5,0.8c-2.5,0.2-4.6,0.4-6.3,0.4v6.1h55.6c8.6,0,16.7-1,24.7-3.1c7.9-2.1,14.8-5.4,21.1-9.8 c6.1-4.4,11.1-10,14.6-16.9c3.6-6.9,5.4-15.1,5.4-24.3C222.6,50.6,220.5,41.6,216.3,34.3z M158.4,40.7c-1.3-0.6-2.9-1.5-3.6-2.7 c-0.4-1.3,0.4-2.9,0.4-4.4c0-0.8,0.2-1.9-0.2-2.3s-1.7-0.4-2.3-0.2c-1.5-0.2-2.5,0.6-3.6,1c1,1.7,2.1,3.1,3.1,4.6 c-1,1.3-1.9,2.1-2.9,3.1c-1-0.4-2.5-1-4-1.7c0.6-0.8,1.3-1.5,1.9-2.1c-0.4,0-1-0.2-1-0.2c-1.5,2.3-4,3.1-6.1,4.2 c-1.5,0.8-2.5,2.1-0.2,3.3c0.6,0.4,1,1.3,1.9,2.1c0.8-1.5,1.3-2.9,2.3-4c0.6-0.8,2.1-1.7,2.9-1.5c2.7,0.8,5.2,2.3,5.6,5.6 c0.2,1.3,0.6,2.7,1,4c-0.2,0.2-0.4,0.4-0.6,0.6c-1.3-0.8-2.3-1.5-3.8-2.3c0,0-0.6,0.2-0.4,0.4c0.8,3.6-2.5,3.6-4.2,5 c-2.9,2.1-5,4.8-5.9,8.6c-0.2,0.8,0.6,1.9,0.8,2.7c0.2,0.8,0.6,1.7,0.4,2.7c-1.5-1-3.3-1.5-3.1-4c0.2-1.9-1.9-2.3-3.3-2.1 c-0.6,0.2-1.3,1.5-1.5,2.3c-0.2,0.8,0,1.9,0,2.9c1.3-0.4,1.9-0.8,2.9-1c0.8,4.8,3.3,7.3,8.4,8.4c2.9,0.6,5.4,3.3,8.2,5.2 c1.7,1,3.3,1.9,5.2,2.5c2.7,0.8,4,1.9,2.7,4.8c-0.6,1.7-0.4,4.6-1.5,5c-2.9,1.3-3.3,4-4.6,6.3c-0.8,1.5-2.5,3.1-0.6,5.2 c0.2,0.4-0.4,1.5-0.8,2.5c-4.6-3.3-5.6-8.2-7.3-12.8c-0.4-1.3-1-2.7-2.1-3.3c-3.6-2.1-5.6-5.4-4.8-9.2c1-5-2.3-7.3-4.8-10.2 c-0.2-0.2-0.6-0.6-1-0.6c-4-0.2-5.2-3.3-5.9-6.3c-2.9-12.1,2.3-20.9,11.5-28c1.5-1,2.9-2.3,4.4-3.1c2.5-1.5,3.1-1,3.6,1.7 c1.3-1,2.5-2.3,3.6-3.6c1.7-2.5,4.4-2.5,6.9-2.7c1.7-0.2,3.3-0.8,5-0.4c1.3,0.2,2.7,1.3,3.1,2.3c0.6,1.3,0.8,3.1,0.4,4.2 c-1,2.1-2.5,4.2-4.2,6.1C160.1,40.1,158.8,41,158.4,40.7z M164,34.7c1-0.2,2.1-0.4,3.3-0.6c0.2,0.6,0.4,1,0.4,1.5 c-1,0.2-1.9,0.6-2.9,0.6C164.7,36.1,164.5,35.1,164,34.7z M205.7,70c-0.8-3.6-1.5-6.7-2.1-9.8c-0.2,0-0.6,0-0.8,0.2 c-1,2.1-1.9,4-3.1,6.5c0,0.2,0.6,1,0.8,1.5c-2.3,4.6-4.6,9-6.9,13.4c0.2,0.2,0.6,0.4,0.8,0.6c0.8-0.4,1.7-0.8,2.5-1.3 c1.5,3.8,1,4.6-2.5,6.7c0,0-0.2,0-0.2-0.2c-0.4-1-0.6-2.3-1-3.3c-0.6,1-1.3,2.1-1.9,2.9c-0.8,1.3-1.7,2.7-2.9,3.3 c-1.3,0.8-3.1,1-4.8,1c-0.4,0-1.3-2.1-1.3-3.1c0.2-2.9,0.8-5.9,0.8-8.8c0-3.6-0.8-6.7-3.6-9.2c-1,0.2-2.3,0.6-3.3,0.8 c-4.2,0.8-6.3-1.5-7.7-4.6c-1.3-2.7-1-5.9,0.8-8.2c1.9-2.5,3.8-4.6,2.7-8.2c-0.2-0.6,1-1.7,1.5-2.5c0.4-0.6,0.8-1,1.3-1.7 c0.2-0.6,0.4-1.5,0.4-2.3c-1.3-0.2-3.1-0.6-5.4-1.3c1.3-1.7,2.1-2.5,2.5-3.3c1.5,1,2.9,1.9,4.4,2.9c0.4-0.8,0.8-1.5,1-1.7 c-1-1.5-2.1-2.3-2.1-3.1c0.4-3.8,2.9-5.9,6.5-5.6c-0.2-0.8-0.2-1.7-0.4-2.7C194.2,29.5,211.1,57.7,205.7,70z"></path> </g> </g> </svg> 