<?xml version="1.0" encoding="UTF-8"?> <!-- Generator: Adobe Illustrator 24.2.3, SVG Export Plug-In . SVG Version: 6.00 Build 0) --> <svg xmlns="http://www.w3.org/2000/svg" xmlns:xlink="http://www.w3.org/1999/xlink" version="1.1" id="Layer_1" x="0px" y="0px" viewBox="0 0 346.3 129.6" style="enable-background:new 0 0 346.3 129.6;" xml:space="preserve"> <style type="text/css"> .st0{fill:#BE8C2C;} .st1{fill:#407F46;} .st2{fill:#DC1868;} .st3{fill:#F26A2C;} .st4{fill:#1C97D4;} .st5{fill:#4CA046;} .st6{fill:#DDA73B;} .st7{fill:#F99D2A;} .st8{fill:#F9C213;} .st9{fill:#194A6B;} .st10{fill:#A21C44;} .st11{fill:#E3273E;} .st12{fill:#EF412C;} .st13{fill:#07699E;} .st14{fill:#2ABDE2;} </style> <g> <g> <path class="st0" d="M109.4,108.7c0.2,0,0.2,0.1,0.2,0.2c0.5,1.3,1.1,2.5,1.8,3.6c0.2,0.3,0,0.3-0.2,0.5c-2.7,2.1-5.4,4.1-8.2,6.2 c-0.6,0.5-1.2,0.9-1.8,1.4c-0.2,0.2-0.4,0.2-0.6-0.1c-1.7-2.4-3-5.1-3.9-7.9c-0.1-0.4,0.1-0.4,0.3-0.4c3.8-1.1,7.6-2.2,11.4-3.3 C108.8,108.8,109.1,108.8,109.4,108.7z"></path> <path class="st1" d="M95.3,103.5c0-0.7,0-1.4,0-2.1c0-0.4,0.2-0.4,0.5-0.4c2,0.2,4.1,0.4,6.1,0.5c2,0.2,4,0.4,6.1,0.5 c0.6,0.1,0.7,0.1,0.6,0.7c0,1.2,0.1,2.4,0.3,3.5c0.1,0.3,0,0.4-0.3,0.5c-4,1.2-8.1,2.3-12.1,3.5c-0.3,0.1-0.4,0-0.5-0.3 C95.6,107.9,95.3,105.7,95.3,103.5z"></path> <path class="st2" d="M121.9,120.1c-0.2,1.2-0.4,2.4-0.7,3.6c-0.6,3-1.1,6-1.7,9c-0.1,0.3-0.2,0.4-0.5,0.3c-2.8-0.6-5.5-1.7-8-3.1 c-0.3-0.2-0.4-0.3-0.2-0.6c2.2-3.5,4.4-7.1,6.6-10.6c0.2-0.4,0.4-0.4,0.7-0.2c1.1,0.6,2.2,1,3.4,1.3 C121.9,119.9,121.9,119.9,121.9,120.1z"></path> <path class="st3" d="M125.9,133.7c-1.4,0-2.7-0.1-4.1-0.2c-0.4,0-0.4-0.2-0.3-0.5c0.5-2.4,0.9-4.9,1.4-7.3c0.3-1.7,0.6-3.3,0.9-5 c0.1-0.3,0.1-0.4,0.5-0.4c1.3,0.2,2.6,0.1,3.9-0.1c0.3,0,0.3,0.2,0.3,0.3c0.5,2.5,0.9,5,1.4,7.5c0.3,1.6,0.6,3.3,0.9,4.9 c0.1,0.3,0,0.4-0.3,0.4C128.9,133.6,127.4,133.7,125.9,133.7z"></path> <path class="st4" d="M108.6,100.3c-2.4-0.2-4.8-0.4-7.1-0.6c-1.9-0.2-3.7-0.3-5.6-0.5c-0.3,0-0.4-0.1-0.4-0.4 c0.4-2.9,1.2-5.6,2.4-8.2c0.2-0.4,0.3-0.4,0.6-0.2c3.7,1.9,7.4,3.7,11.1,5.6c0.3,0.2,0.4,0.3,0.2,0.6c-0.5,1.1-0.8,2.3-1,3.5 C108.8,100.3,108.8,100.3,108.6,100.3z"></path> <path class="st5" d="M110.9,94.3c-0.1,0-0.2-0.1-0.2-0.1c-3.8-1.9-7.6-3.8-11.4-5.7c-0.2-0.1-0.3-0.2-0.1-0.4 c1.5-2.6,3.2-4.9,5.3-7c0.2-0.2,0.3-0.2,0.4,0c2.9,3.2,5.7,6.3,8.6,9.4c0.2,0.2,0.1,0.3,0,0.4c-0.9,0.9-1.7,1.9-2.4,3.1 C111.1,94.1,111.1,94.2,110.9,94.3z"></path> <path class="st6" d="M136.8,89.6c-0.1-0.1-0.2-0.1-0.3-0.2c-0.9-0.7-1.9-1.4-2.9-1.8c-0.4-0.2-0.5-0.4-0.3-0.8 c1.3-3.4,2.6-6.8,4-10.3c0.2-0.5,0.4-0.9,0.5-1.4c0.1-0.2,0.1-0.3,0.4-0.2c2.7,1.2,5.2,2.8,7.5,4.7c0.2,0.2,0.2,0.3,0,0.5 c-2.9,3.1-5.7,6.2-8.5,9.3C137,89.5,137,89.6,136.8,89.6z"></path> <path class="st7" d="M109,128.6c-0.1-0.1-0.2-0.1-0.3-0.2c-2.4-1.6-4.5-3.6-6.4-5.8c-0.2-0.3-0.2-0.4,0.1-0.6 c3.3-2.5,6.7-5.1,10-7.6c0.3-0.2,0.4-0.2,0.6,0c0.8,0.9,1.7,1.8,2.8,2.5c0.3,0.2,0.2,0.3,0.1,0.5c-2.2,3.6-4.4,7.1-6.6,10.7 C109.2,128.4,109.2,128.6,109,128.6z"></path> <path class="st8" d="M139.2,114c0.1,0.1,0.2,0.1,0.3,0.2c3.4,2.5,6.8,5.1,10.1,7.6c0.2,0.2,0.2,0.3,0.1,0.5 c-1.9,2.3-4,4.2-6.4,5.9c-0.2,0.2-0.3,0.2-0.5-0.1c-2.2-3.6-4.5-7.2-6.7-10.8c-0.1-0.2-0.1-0.3,0.1-0.5c1-0.8,2-1.6,2.8-2.6 C139.1,114.2,139.2,114.1,139.2,114z"></path> <path class="st9" d="M125.1,79.1c0,2,0,4.1,0,6.1c0,0.4,0,0.5-0.5,0.5c-1.2,0.1-2.4,0.3-3.6,0.6c-0.3,0.1-0.4,0-0.5-0.2 c-1.5-4-3.1-7.9-4.6-11.9c-0.1-0.2-0.1-0.3,0.2-0.4c2.8-0.9,5.6-1.4,8.5-1.6c0.3,0,0.4,0.1,0.4,0.4 C125.1,74.9,125.1,77,125.1,79.1z"></path> <path class="st10" d="M130.3,120c0-0.2,0.1-0.2,0.2-0.3c1.3-0.3,2.5-0.8,3.6-1.5c0.3-0.2,0.4,0,0.5,0.2c1.2,1.9,2.3,3.8,3.5,5.6 c1,1.7,2.1,3.4,3.1,5c0.2,0.3,0.2,0.4-0.1,0.6c-2.5,1.4-5.1,2.5-7.9,3.1c-0.4,0.1-0.4,0-0.5-0.3c-0.8-4.1-1.5-8.2-2.3-12.3 L130.3,120z"></path> <path class="st11" d="M156.3,99c0.1,0.2-0.1,0.2-0.3,0.3c-1.8,0.2-3.6,0.3-5.4,0.5c-2.4,0.2-4.8,0.4-7.2,0.7 c-0.3,0-0.4-0.1-0.5-0.3c-0.2-1.2-0.5-2.4-1-3.5c-0.1-0.3,0-0.4,0.2-0.5c3.8-1.9,7.6-3.8,11.4-5.6c0.2-0.1,0.3-0.2,0.4,0.1 C155.1,93.4,155.9,96.2,156.3,99C156.3,98.9,156.3,99,156.3,99z"></path> <path class="st5" d="M141,94.5c-0.2,0-0.2-0.1-0.2-0.2c-0.7-1.1-1.4-2.2-2.3-3.1c-0.2-0.2-0.1-0.3,0-0.4c2.9-3.1,5.7-6.2,8.6-9.4 c0.2-0.2,0.3-0.2,0.5,0c2,2,3.7,4.3,5.1,6.8c0.2,0.3,0.1,0.4-0.2,0.6c-3.7,1.9-7.5,3.7-11.2,5.6C141.2,94.4,141.1,94.4,141,94.5z"></path> <path class="st12" d="M156.5,103.6c0,2.2-0.3,4.3-0.8,6.4c-0.1,0.3-0.1,0.3-0.4,0.3c-4.1-1.2-8.1-2.3-12.2-3.5 c-0.2-0.1-0.4-0.1-0.3-0.4c0.3-1.2,0.4-2.4,0.3-3.6c0-0.3,0.1-0.4,0.4-0.4c2.1-0.2,4.2-0.4,6.3-0.6c2.1-0.2,4.2-0.4,6.3-0.6 c0.4,0,0.5,0,0.5,0.4C156.5,102.3,156.5,102.9,156.5,103.6z"></path> <path class="st11" d="M127,79.1c0-2.1,0-4.2,0-6.3c0-0.3,0.1-0.4,0.4-0.4c2.8,0.2,5.6,0.7,8.3,1.6c0.3,0.1,0.4,0.2,0.2,0.5 c-1.5,3.9-3,7.8-4.5,11.7c-0.1,0.3-0.2,0.4-0.5,0.3c-1.1-0.4-2.3-0.6-3.5-0.7c-0.3,0-0.4-0.1-0.4-0.5C127,83.3,127,81.2,127,79.1z "></path> <path class="st13" d="M115.2,89.5c-0.1-0.1-0.2-0.1-0.2-0.2c-2.9-3.1-5.7-6.3-8.6-9.4c-0.2-0.2-0.2-0.3,0-0.5 c2.2-1.8,4.6-3.3,7.2-4.4c0.3-0.1,0.5-0.1,0.6,0.2c1.5,3.9,3,7.7,4.5,11.6c0.1,0.4,0.1,0.5-0.3,0.7c-1.1,0.5-2,1.1-3,1.8 C115.4,89.3,115.3,89.4,115.2,89.5z"></path> <path class="st14" d="M142.4,108.6c0.4,0.1,0.8,0.2,1.1,0.3c3.7,1.1,7.5,2.2,11.2,3.2c0.3,0.1,0.4,0.2,0.3,0.5 c-0.9,2.7-2.1,5.2-3.7,7.5c-0.2,0.3-0.3,0.3-0.5,0.1c-3.4-2.5-6.7-5.1-10.1-7.6c-0.2-0.2-0.2-0.3-0.1-0.5c0.6-1,1.1-2.1,1.6-3.2 C142.2,108.8,142.2,108.6,142.4,108.6z"></path> </g> <path class="st9" d="M94.7,75.6c-0.8,0.1-1.6,0.3-2.5,0.5c-0.8,0.3-1.6,0.6-2.4,1.1c-1.2,0.7-2.1,1.4-2.6,2.3c-0.5,0.8-1,1.8-1.4,3 c-1.5,4-3.7,10.5-6.8,19.4c-3,8.9-6.2,18.1-9.5,27.7h-8l-14.9-42l-13.4,42h-8c-4.4-12.9-7.8-22.8-10.2-29.8S10.6,87,9,82.3 c-0.5-1.4-1.1-2.5-1.7-3.1c-0.6-0.7-1.5-1.3-2.5-2c-0.7-0.5-1.5-0.8-2.3-1.1c-0.8-0.2-1.7-0.4-2.8-0.5v-3.1h30.2v3 c-1.8,0.2-3.1,0.4-4,0.6c-0.9,0.2-1.6,0.4-2.1,0.6c-0.5,0.2-0.8,0.4-0.9,0.7c-0.1,0.2-0.2,0.5-0.2,0.6c0,0.4,0,0.7,0.1,1.1 c0.1,0.3,0.2,0.7,0.3,1.2c0.6,2.1,1.9,6,3.9,11.8c1.9,5.8,4.3,13,7.2,21.5l12.9-41.1h8.5L70.5,115c2.2-6.8,4-12.4,5.3-16.7 s2.4-8,3.3-11.1c0.5-1.9,1-3.5,1.3-4.7c0.3-1.3,0.5-2.4,0.5-3.3c0-0.6-0.3-1-0.8-1.4s-1.2-0.7-2.1-1c-0.7-0.2-1.7-0.4-2.9-0.6 c-1.2-0.1-2.2-0.3-3.1-0.3v-3.2h22.7L94.7,75.6L94.7,75.6z"></path> <path class="st9" d="M227.7,128.9H206c-3.7-5.7-6.9-10.3-9.3-13.7c-2.5-3.4-5.6-7.3-9.3-11.8h-2.2v17.2c0,1,0.2,1.8,0.5,2.4 c0.4,0.7,1,1.2,2.1,1.7c0.5,0.2,1.3,0.4,2.4,0.7c1.1,0.2,2,0.4,2.8,0.5v3.1h-30.2v-3.1c0.8-0.1,1.8-0.2,3-0.3 c1.3-0.1,2.2-0.3,2.7-0.5c1-0.4,1.7-1,2-1.6s0.5-1.5,0.5-2.5V81.1c0-1-0.1-1.8-0.4-2.4c-0.3-0.6-1-1.2-2.1-1.7 c-0.8-0.3-1.9-0.6-3-0.9c-1.2-0.2-2.1-0.4-2.7-0.5v-3.1h31.7c7.1,0,12.5,1.1,16.2,3.3s5.5,5.6,5.5,10.1c0,4-1.1,7.1-3.4,9.5 s-5.7,4.3-10.4,5.6c1.8,2.3,3.9,5,6.3,8.1s4.9,6.2,7.5,9.4c0.8,1,1.9,2.3,3.4,3.8c1.4,1.5,2.7,2.4,3.8,2.8c0.6,0.2,1.4,0.3,2.3,0.5 c0.9,0.1,1.6,0.2,2,0.2L227.7,128.9L227.7,128.9z M200.6,86.9c0-3.8-1.1-6.5-3.2-8.3c-2.1-1.7-5.1-2.6-9-2.6h-3.2v23.7h3 c3.9,0,6.9-1,9.1-3.1C199.5,94.6,200.6,91.3,200.6,86.9z"></path> <path class="st9" d="M281,110.8l-1.1,18.1h-52.1v-3.1c0.9-0.1,2-0.2,3.3-0.4c1.2-0.2,2.1-0.3,2.5-0.5c1-0.4,1.6-0.9,2-1.6 c0.4-0.7,0.6-1.5,0.6-2.5V80.9c0-1-0.1-1.7-0.4-2.4c-0.3-0.6-1-1.2-2.1-1.7c-0.8-0.4-1.8-0.7-3-0.9s-2.1-0.4-2.8-0.5v-3.1h31v3.1 c-0.9,0.1-1.9,0.2-3,0.3c-1.2,0.1-2.2,0.4-3,0.6c-1,0.3-1.7,0.9-2.1,1.6c-0.3,0.7-0.5,1.6-0.5,2.5v37.2c0,1.8,0.1,3.1,0.4,4.1 c0.2,1,0.7,1.8,1.4,2.2c0.7,0.5,1.7,0.8,2.9,1c1.2,0.1,2.9,0.2,5.1,0.2c2.1,0,4.2-0.1,6.2-0.4c2-0.3,3.4-0.8,4.3-1.7 c1.4-1.4,2.7-3.3,4.2-5.7c1.4-2.5,2.6-4.7,3.4-6.8h2.8V110.8z"></path> <path class="st9" d="M334.7,78.2c3.5,2.3,6.2,5.3,8.4,9c2.1,3.8,3.2,8.4,3.2,13.8c0,4.8-0.9,8.9-2.8,12.5c-1.9,3.5-4.4,6.4-7.5,8.7 c-3.2,2.3-6.8,3.9-10.9,5c-4,1.1-8.3,1.7-12.7,1.7h-28.5v-3.1c0.8,0,1.9-0.1,3.2-0.2c1.3-0.1,2.1-0.3,2.5-0.5c1-0.4,1.6-0.9,2-1.6 c0.4-0.7,0.6-1.5,0.6-2.4V81c0-0.9-0.2-1.7-0.5-2.4s-1-1.3-2-1.8s-2.1-0.8-3.2-0.9c-1.1-0.2-2-0.3-2.6-0.3v-3.1H314 c3.2,0,6.7,0.4,10.3,1.2C327.8,74.5,331.3,76,334.7,78.2z M326.6,118.7c1.3-2.1,2.3-4.7,2.8-7.6c0.6-2.9,0.9-6.3,0.9-10.1 c0-3.7-0.4-7.2-1.2-10.2c-0.8-3.1-2-5.7-3.5-7.9s-3.5-3.9-5.8-5.1c-2.3-1.2-4.9-1.8-7.8-1.8c-0.9,0-2,0-3.2,0.1 c-1.2,0-2.1,0.1-2.6,0.1v42.9c0,1,0.1,1.8,0.4,2.5s0.7,1.4,1.3,1.9c0.6,0.6,1.4,1,2.2,1.3c0.9,0.3,2.1,0.5,3.5,0.5 c3,0,5.6-0.6,7.7-1.7C323.5,122.5,325.2,120.9,326.6,118.7z"></path> <path class="st9" d="M23.8,56.6c-3.3,0-6.3-0.4-9.2-1.2c-2.9-0.8-5.2-1.7-7.3-2.9l-2.7,2.7H1.5L1,35.7h3.3C5,37.6,5.9,39.5,7,41.6 c1.1,2,2.5,3.9,4,5.5c1.5,1.7,3.3,3.1,5.2,4.1c1.9,1,4.1,1.6,6.7,1.6c3.5,0,6-0.8,7.9-2.6c1.8-1.6,2.8-3.8,2.8-6.3 c0-2-0.8-3.9-2.4-5.3c-1.5-1.4-4-2.7-7.3-3.7c-2.1-0.7-4.1-1.3-5.8-1.9c-1.7-0.6-3.5-1.2-5-1.7c-3.6-1.4-6.3-3.5-8.1-6.1 s-2.7-5.6-2.7-9c0-2.1,0.4-4.1,1.3-6c0.9-1.9,2.3-3.7,4-5.2c1.6-1.4,3.8-2.7,6.4-3.5C16.7,0.4,19.5,0,22.6,0c3,0,5.7,0.4,8.4,1.2 c2.6,0.8,4.6,1.6,6.1,2.5l2.4-2.3h3.3l0.3,18.3h-3.3c-0.7-1.9-1.6-4-2.7-6S35,9.9,33.9,8.6c-1.2-1.4-2.7-2.7-4.3-3.5 c-1.6-0.9-3.5-1.3-5.7-1.3c-2.8,0-4.9,0.8-6.7,2.4s-2.6,3.5-2.6,5.7c0,2.1,0.7,3.9,2.3,5.3c1.5,1.3,3.9,2.6,7.1,3.6 c1.8,0.6,3.8,1.2,5.7,1.9c1.9,0.6,3.7,1.2,5.2,1.8c3.7,1.4,6.4,3.4,8.4,5.8c1.9,2.5,2.9,5.6,2.9,9.3c0,2.4-0.5,4.6-1.6,6.8 s-2.6,4-4.4,5.4c-2,1.6-4.4,2.9-7,3.7C30.5,56.2,27.4,56.6,23.8,56.6z"></path> <path class="st9" d="M170,33.8c-0.8,0.1-1.4,0.2-2,0.3c-0.6,0.1-1.3,0.3-2.3,0.6c-1,0.3-1.7,0.9-2,1.6c-0.3,0.7-0.5,1.5-0.5,2.4 v6.2c0,1.2,0,2.3,0,3.1s0.1,1.7,0.1,2.9c-2.6,1.5-6.2,3-11.2,4.3c-4.9,1.3-9.5,2-13.6,2c-3.9,0-7.6-0.6-11-1.7 c-3.4-1.2-6.4-3-9-5.3c-2.6-2.4-4.6-5.2-6-8.8c-1.4-3.5-2.3-7.5-2.3-12c0-4.2,0.7-8.1,2-11.7c1.4-3.6,3.4-6.7,6-9.2 c2.6-2.6,5.7-4.5,9.4-5.9s7.8-2,12.3-2c3.1,0,5.8,0.4,8.5,1.1c2.6,0.7,4.7,1.5,6.4,2.5l2.4-2h3.3l0.3,19.7h-3.4 c-1.9-5.9-4.2-10.2-6.9-13.1c-2.7-2.9-6-4.3-10.1-4.3c-4.8,0-8.6,2.1-11.3,6.3c-2.7,4.2-4,10.1-4,17.6c0,7.9,1.3,14.1,3.9,18.6 c2.6,4.5,6.2,6.8,11.1,6.8c2.3,0,4.2-0.3,5.9-1c1.7-0.7,3.1-1.4,4-2.4V39c0-0.9-0.2-1.6-0.5-2.3c-0.3-0.6-1-1.1-1.9-1.6 c-0.7-0.3-1.7-0.6-2.9-0.9c-1.1-0.2-2-0.4-2.9-0.5v-2.9h27.9v3H170z"></path> <g> <path class="st9" d="M92.1,25.2c-0.2,1,0.5,0.9,1.1,1c0.2,0,0.3-0.4,0.5-0.6c-0.4-0.1-0.8-0.3-1.2-0.4 C92.4,25.1,92.2,25.2,92.1,25.2z"></path> <path class="st9" d="M85.8,24.6c0.1,0.1,0.2,0.2,0.3,0.3c0.4-0.1,0.8-0.3,1.1-0.3c0.6,0,1.4,0,1.6,0.3c1.1,1.4,2.1,1.1,3.3,0.3 c-1.7-0.6-3.4-1.2-5.3-2C86.6,23.4,86.2,24,85.8,24.6z"></path> <path class="st9" d="M105.4,16c-2-3.6-4.7-6.4-8-8.6c-3.3-2-6.6-3.6-10-4.4c-3.5-0.7-6.8-1.1-9.8-1.1H49v3 c0.5,0.1,1.4,0.2,2.5,0.3c1.1,0.2,2.1,0.5,3.1,0.9c0.9,0.4,1.6,0.9,1.9,1.6C56.8,8.4,57,9.2,57,10v38.1c0,0.9-0.2,1.7-0.5,2.4 c-0.4,0.6-1,1.1-1.9,1.5c-0.4,0.1-1.2,0.3-2.5,0.4c-1.2,0.1-2.3,0.2-3.1,0.2v3h27.2c4.2,0,8.2-0.5,12.1-1.5 c3.9-1,7.3-2.7,10.3-4.8c3-2.1,5.4-4.9,7.2-8.3c1.7-3.4,2.7-7.4,2.7-11.9C108.5,24,107.5,19.5,105.4,16z M77.1,19.1 c-0.6-0.3-1.4-0.7-1.7-1.3c-0.2-0.6,0.2-1.4,0.2-2.1c0-0.4,0.1-0.9-0.1-1.1s-0.8-0.2-1.1-0.1c-0.7-0.1-1.2,0.3-1.7,0.5 c0.5,0.8,1,1.5,1.5,2.3c-0.5,0.6-0.9,1-1.4,1.5c-0.5-0.2-1.2-0.5-1.9-0.8c0.3-0.4,0.6-0.7,0.9-1c-0.2,0-0.5-0.1-0.5-0.1 c-0.7,1.1-1.9,1.5-3,2c-0.7,0.4-1.2,1-0.1,1.6c0.3,0.2,0.5,0.6,0.9,1c0.4-0.7,0.6-1.4,1.1-1.9c0.3-0.4,1-0.8,1.4-0.7 c1.3,0.4,2.6,1.1,2.8,2.8c0.1,0.6,0.3,1.3,0.5,1.9c-0.1,0.1-0.2,0.2-0.3,0.3c-0.6-0.4-1.1-0.7-1.8-1.1c0,0-0.3,0.1-0.2,0.2 c0.4,1.7-1.2,1.7-2,2.5c-1.4,1-2.5,2.4-2.9,4.2c-0.1,0.4,0.3,0.9,0.4,1.3c0.1,0.4,0.3,0.8,0.2,1.3c-0.7-0.5-1.6-0.7-1.5-1.9 c0.1-0.9-0.9-1.1-1.6-1c-0.3,0.1-0.6,0.7-0.7,1.1c-0.1,0.4,0,0.9,0,1.4c0.6-0.2,0.9-0.4,1.4-0.5c0.4,2.4,1.6,3.6,4.1,4.1 c1.4,0.3,2.7,1.6,4,2.6c0.8,0.5,1.6,0.9,2.6,1.2c1.3,0.4,1.9,0.9,1.3,2.4c-0.3,0.8-0.2,2.3-0.7,2.5c-1.4,0.6-1.6,1.9-2.3,3.1 c-0.4,0.7-1.2,1.5-0.3,2.6c0.1,0.2-0.2,0.7-0.4,1.2c-2.3-1.6-2.8-4-3.6-6.2c-0.2-0.6-0.5-1.3-1-1.6c-1.7-1-2.8-2.7-2.4-4.5 c0.5-2.5-1.1-3.6-2.4-5c-0.1-0.1-0.3-0.3-0.5-0.3c-1.9-0.1-2.6-1.6-2.9-3.1c-1.4-5.9,1.1-10.2,5.6-13.7c0.7-0.5,1.4-1.1,2.1-1.5 c1.2-0.7,1.5-0.5,1.7,0.8c0.6-0.5,1.2-1.1,1.7-1.7c0.8-1.2,2.1-1.2,3.4-1.3c0.8-0.1,1.6-0.4,2.5-0.2c0.6,0.1,1.3,0.6,1.5,1.1 c0.3,0.6,0.4,1.5,0.2,2c-0.5,1-1.2,2-2,3C77.9,18.8,77.3,19.2,77.1,19.1z M79.8,16.2c0.5-0.1,1-0.2,1.6-0.3 c0.1,0.3,0.2,0.5,0.2,0.7c-0.5,0.1-0.9,0.3-1.4,0.3C80.1,16.9,80,16.4,79.8,16.2z M100.2,33.5c-0.4-1.7-0.7-3.3-1-4.8 c-0.1,0-0.3,0-0.4,0.1c-0.5,1-0.9,1.9-1.5,3.2c0,0.1,0.3,0.5,0.4,0.7c-1.1,2.3-2.3,4.4-3.4,6.6c0.1,0.1,0.3,0.2,0.4,0.3 c0.4-0.2,0.8-0.4,1.2-0.6c0.7,1.8,0.5,2.3-1.2,3.3c0,0-0.1,0-0.1-0.1c-0.2-0.5-0.3-1.1-0.5-1.6c-0.3,0.5-0.6,1-0.9,1.4 c-0.4,0.6-0.8,1.3-1.4,1.6c-0.6,0.4-1.5,0.5-2.4,0.5c-0.2,0-0.6-1-0.6-1.5c0.1-1.4,0.4-2.9,0.4-4.3c0-1.7-0.4-3.3-1.7-4.5 c-0.5,0.1-1.1,0.3-1.6,0.4c-2,0.4-3.1-0.7-3.8-2.3c-0.6-1.3-0.5-2.9,0.4-4c0.9-1.2,1.8-2.3,1.3-4c-0.1-0.3,0.5-0.8,0.7-1.2 c0.2-0.3,0.4-0.5,0.6-0.8c0.1-0.3,0.2-0.7,0.2-1.1c-0.6-0.1-1.5-0.3-2.7-0.6c0.6-0.8,1-1.2,1.2-1.6c0.7,0.5,1.4,0.9,2.1,1.4 c0.2-0.4,0.4-0.7,0.5-0.8c-0.5-0.7-1-1.1-1-1.5c0.2-1.8,1.4-2.9,3.2-2.8c-0.1-0.4-0.1-0.8-0.2-1.3 C94.6,13.6,102.8,27.4,100.2,33.5z"></path> </g> </g> </svg> 